# xmcd CD database file
#
# Track frame offsets:
#	150
#	25550
#	53092
#	70757
#	92787
#	109100
#	135537
#	154162
#	187705
#	215595
#	246850
#
# Disc length: 3751 seconds
#
# Revision: 0
# Processed by: cddbd v1.5.1PL0 Copyright (c) Steve Scherf et al.
# Submitted via: CDex 1.51
#
DISCID=8b0ea50b
DTITLE=Egil Kapstad - Rememberance
DYEAR=1993
DGENRE=Jazz
TTITLE0=Linjer
TTITLE1=Before You Go
TTITLE2=Ved vannet
TTITLE3=Medium
TTITLE4=Mood
TTITLE5=Big Red
TTITLE6=Bird Lovers
TTITLE7=Rememberance of Eric Dolphy
TTITLE8=Tribute to Melvin
TTITLE9=A Song You'll Never Sing
TTITLE10=To The Most Peacful Man
EXTD=YEAR: 1993
EXTT0=
EXTT1=
EXTT2=
EXTT3=
EXTT4=
EXTT5=
EXTT6=
EXTT7=
EXTT8=
EXTT9=
EXTT10=
PLAYORDER=
